<svg id="bf2af84e-395c-4139-aaef-10844abe0fd0" data-name="Layer 1" xmlns="http://www.w3.org/2000/svg" viewBox="0 0 311.63 469.39"><defs><style>.a2a4aab0-4818-4f11-b407-660d941e99a8{fill:#231f20;}.bfab5ea7-0a39-4550-9832-2731b2c99c6e{fill:#ec1a5c;}</style></defs><g id="af0671c0-883c-45ef-9457-9002273ea640" data-name="brand"><g id="e171aa74-3596-4752-bca5-eb794bd2e6c8" data-name="logo--color-black--without text"><path class="a2a4aab0-4818-4f11-b407-660d941e99a8" d="M204.61,422.59c0,14.26-15.76,12.11-15.76,12.11H126.38c-9.77,0-12-7.69-12-14.71V409.62L98,422.65v3.62c0,17.78,8.87,24.21,28.7,24.21h69c13.34,0,25.24-9.11,25.24-22.16V394.18l-16.31,15.65Z" transform="translate(-94.18 -17.05)"/><polygon class="a2a4aab0-4818-4f11-b407-660d941e99a8" points="134.19 433.49 150.79 433.49 150.79 357.04 134.19 372.64 134.19 433.49"/><path class="a2a4aab0-4818-4f11-b407-660d941e99a8" d="M263.62,441.06c0,10.5-5.73,16.28-16.65,16.28l10.69,16c6.06,0,22.63-4.33,22.63-33.72V392.92l-16.67,16.7Z" transform="translate(-94.18 -17.05)"/><path class="a2a4aab0-4818-4f11-b407-660d941e99a8" d="M307.21,450.56h27.26a19.91,19.91,0,0,0,16.39-7.25A23.61,23.61,0,0,0,356,427.56V396.83l-16.62,15.39V423q0,11.64-8.41,11.63H303.61s.19-7.87.19-12.34V372.86l-16.73,15.62V431Q287.07,450.56,307.21,450.56Z" transform="translate(-94.18 -17.05)"/><polygon class="a2a4aab0-4818-4f11-b407-660d941e99a8" points="268.59 433.49 285.22 433.49 285.22 356.18 268.59 370.88 268.59 433.49"/><path class="a2a4aab0-4818-4f11-b407-660d941e99a8" d="M370.45,350.93c-24.61,0-31.12,16.57-31.12,22.63l16.54,10.51c0-10.93,2.76-16.39,13.13-16.39h16.31L402,351Z" transform="translate(-94.18 -17.05)"/><polygon class="a2a4aab0-4818-4f11-b407-660d941e99a8" points="60.08 375.9 20.06 375.9 20.06 392.52 75.7 392.52 60.08 375.9"/><path class="a2a4aab0-4818-4f11-b407-660d941e99a8" d="M338,478.24l13.94-13.13a7,7,0,0,0-.42-.6,19.88,19.88,0,0,0-16.38-7.25h-45.7L306.32,473h23.29A10.24,10.24,0,0,1,338,478.24Z" transform="translate(-94.18 -17.05)"/><path class="a2a4aab0-4818-4f11-b407-660d941e99a8" d="M318.42,475.67h10.51A8.81,8.81,0,0,1,336,480l-6.38,6.44Z" transform="translate(-94.18 -17.05)"/></g></g><g id="a27dcec6-9cb0-4ebe-a163-fa54e89591e4" data-name="icon"><path class="a2a4aab0-4818-4f11-b407-660d941e99a8" d="M228.55,26.16,200,18.68a48.26,48.26,0,0,0-59,34.25L133.76,80A147.83,147.83,0,0,1,228.55,26.16Z" transform="translate(-94.18 -17.05)"/><path class="a2a4aab0-4818-4f11-b407-660d941e99a8" d="M102.84,196.44l-7,26.46a48.27,48.27,0,0,0,34.26,59l27.37,7.29A147.78,147.78,0,0,1,102.84,196.44Z" transform="translate(-94.18 -17.05)"/><path class="a2a4aab0-4818-4f11-b407-660d941e99a8" d="M370,63.79l-30.74-8.17a147.81,147.81,0,0,1,56.56,99l8.44-31.93A48.27,48.27,0,0,0,370,63.79Z" transform="translate(-94.18 -17.05)"/><path class="a2a4aab0-4818-4f11-b407-660d941e99a8" d="M270.66,319.28l29.42,7.94a48.26,48.26,0,0,0,59-34.26l8.3-31.2A147.88,147.88,0,0,1,270.66,319.28Z" transform="translate(-94.18 -17.05)"/><path class="bfab5ea7-0a39-4550-9832-2731b2c99c6e" d="M250,37.74A135.16,135.16,0,1,0,385.2,172.9,135.16,135.16,0,0,0,250,37.74ZM173.5,105.16a38.59,38.59,0,1,1,30.6,45.21,38.59,38.59,0,0,1-30.6-45.21Zm56.15,116.78a41.42,41.42,0,1,1,0-.08v.08ZM246,190.69a17,17,0,1,1,.1,0l-.1,0Zm80.51,49.86a38.59,38.59,0,1,1-30.61-45.2,38.6,38.6,0,0,1,30.61,45.2ZM301,169a28.4,28.4,0,1,1,.06.05H301Z" transform="translate(-94.18 -17.05)"/></g></svg>